<svg xmlns="http://www.w3.org/2000/svg" viewBox="0 0 48 48" id="spotify">
  <path fill="#1ec85a" d="M24,2A22,22,0,1,0,46,24,22,22,0,0,0,24,2ZM34.12,33.79a1.31,1.31,0,0,1-1.87.44C27.08,31,20.59,30.38,12.89,32.14a1.36,1.36,0,1,1-.66-2.64c8.36-1.87,15.62-1.1,21.34,2.42A1.32,1.32,0,0,1,34.12,33.79Zm2.64-6.05a1.66,1.66,0,0,1-2.31.55,28.51,28.51,0,0,0-21.89-2.53,1.67,1.67,0,1,1-1-3.19c8-2.42,17.93-1.21,24.75,3A1.55,1.55,0,0,1,36.76,27.74ZM37,21.58c-7-4.18-18.81-4.62-25.52-2.53a2,2,0,0,1-1.21-3.85c7.81-2.31,20.68-1.87,28.82,3A2.13,2.13,0,0,1,39.84,21,2.3,2.3,0,0,1,37,21.58Z"></path>
</svg>
